<svg viewBox="0 -16 512 512" xmlns="http://www.w3.org/2000/svg"><path d="m503.53125 336.3125c-23.484375-33.054688-68.824219-41.390625-102.410156-19.265625l-65.457032 42.953125h-3.664062v-60h-94.679688c-8.28125 0-11.625-5.957031-16.957031-9.9375-39.542969-34.800781-99.183593-34.800781-138.726562 0l-11.296875 9.9375h-70.339844v180h337l175-131.769531zm-442.53125 113.6875h-31v-120h31zm266 0h-236v-128.21875l10.453125-9.199219c28.246094-24.855469 70.847656-24.855469 99.09375 0 3.972656 2.679688 14.9375 17.417969 36.773437 17.417969h64.679688v30h-107v30h149.550781l72.992188-47.84375c16.117187-10.617188 36.398437-9.667969 51.164062 1.039062zm0 0"/><path d="m286 181.769531 135-67.5v-84.269531h60v-30c-17.265625 0-390.878906 0-420 0v30h30v122.578125c-17.460938 6.195313-30 22.867187-30 42.421875v45h90v-45c0-19.554688-12.539062-36.226562-30-42.421875v-122.578125h30v84.269531zm-165 28.230469h-30v-15c0-8.269531 6.730469-15 15-15s15 6.730469 15 15zm270-114.269531-105 52.5-105-52.5v-65.730469h210zm0 0"/></svg>